<?xml version="1.0" encoding="UTF-8"?>
<svg width="20px" height="20px" viewBox="0 0 20 20" version="1.1" xmlns="http://www.w3.org/2000/svg" xmlns:xlink="http://www.w3.org/1999/xlink">
    <!-- Generator: Sketch 45.1 (43504) - http://www.bohemiancoding.com/sketch -->
    <title>Combined Shape</title>
    <desc>Created with Sketch.</desc>
    <defs></defs>
    <g id="Page-1" stroke="none" stroke-width="1" fill="none" fill-rule="evenodd">
        <path d="M11.6007854,10 L13.6684665,12.0676811 L13.6684665,12.0676811 C14.1105112,12.5097258 14.1105112,13.2264218 13.6684665,13.6684665 C13.2264218,14.1105112 12.5097258,14.1105112 12.0676811,13.6684665 L10,11.6007854 L7.93231889,13.6684665 C7.49027421,14.1105112 6.77357818,14.1105112 6.33153351,13.6684665 C5.88948883,13.2264218 5.88948883,12.5097258 6.33153351,12.0676811 L8.39921462,10 L6.33153351,7.93231889 C5.88948883,7.49027421 5.88948883,6.77357818 6.33153351,6.33153351 L6.33153351,6.33153351 L6.33153351,6.33153351 C6.77357818,5.88948883 7.49027421,5.88948883 7.93231889,6.33153351 L10,8.39921462 L12.0676811,6.33153351 C12.5097258,5.88948883 13.2264218,5.88948883 13.6684665,6.33153351 C14.1105112,6.77357818 14.1105112,7.49027421 13.6684665,7.93231889 L11.6007854,10 Z M10,20 C4.4771525,20 0,15.5228475 0,10 C0,4.4771525 4.4771525,0 10,0 C15.5228475,0 20,4.4771525 20,10 C20,15.5228475 15.5228475,20 10,20 Z M10,18 C14.418278,18 18,14.418278 18,10 C18,5.581722 14.418278,2 10,2 C5.581722,2 2,5.581722 2,10 C2,14.418278 5.581722,18 10,18 Z" id="Combined-Shape" fill="#808080" fill-rule="nonzero"></path>
    </g>
</svg>