<?xml version="1.0" encoding="UTF-8"?>
<svg width="20px" height="20px" viewBox="0 0 20 20" version="1.1" xmlns="http://www.w3.org/2000/svg" xmlns:xlink="http://www.w3.org/1999/xlink">
    <!-- Generator: Sketch 45.1 (43504) - http://www.bohemiancoding.com/sketch -->
    <title>Group 3</title>
    <desc>Created with Sketch.</desc>
    <defs></defs>
    <g id="Page-1" stroke="none" stroke-width="1" fill="none" fill-rule="evenodd">
        <g id="Fits-Excellent-Copy" transform="translate(-277.000000, -233.000000)">
            <g id="Interactive-Size-Chart-" transform="translate(45.000000, 99.000000)">
                <g id="Group-4" transform="translate(45.000000, 134.000000)">
                    <g id="Group-8">
                        <g id="Group-3" transform="translate(187.000000, 0.000000)">
                            <g id="Group-6">
                                <circle id="Oval-2" stroke="#E19702" stroke-width="2" cx="10" cy="10" r="9"></circle>
                                <path d="M11.6181081,13.9607627 C11.7107436,13.9863371 11.8083217,14 11.9090909,14 C12.5115834,14 13,13.5115834 13,12.9090909 L13,12.9090909 L13,5.09090909 C13,4.48841664 12.5115834,4 11.9090909,4 C11.3065985,4 10.8181818,4.48841664 10.8181818,5.09090909 L10.8181818,5.09090909 L10.8181818,11.7979798 L8.04040404,11.7979798 C7.43791159,11.7979798 6.94949495,12.2863964 6.94949495,12.8888889 C6.94949495,13.4913813 7.43791159,13.979798 8.04040404,13.979798 L11.4141414,13.979798 C11.4838507,13.979798 11.5520329,13.9732596 11.6181081,13.9607627 Z" id="Combined-Shape" fill="#E19702" transform="translate(10.000000, 9.000000) rotate(45.000000) translate(-10.000000, -9.000000) "></path>
                            </g>
                        </g>
                    </g>
                </g>
            </g>
        </g>
    </g>
</svg>